# xmcd
#
# Track frame offsets:
#        150
#        11900
#        25170
#        36735
#        50465
#        60995
#        71745
#        84725
#        101152
#        120275
#        140505
#        160425
#        172810
#        188780
#        201060
#        213235
#        227720
#        238680
#        254215
#
# Disc length: 3548 seconds
#
# Revision: 0
# Processed by: cddbd v1.5.1PL0 Copyright (c) Steve Scherf et al.
# Submitted via: ExactAudioCopy v0.95a5
#
DISCID=130dda13
DTITLE=Jimmy Reed - Just Jimmy Reed
DYEAR=1900
DGENRE=Blues
TTITLE0=I'll Change My Style
TTITLE1=Let's Get Together
TTITLE2=Good Lover
TTITLE3=Take It Slow
TTITLE4=Too Much
TTITLE5=In The Morning
TTITLE6=Oh John
TTITLE7=Back Home At Noon
TTITLE8=Kansas City Baby
TTITLE9=You Can't Hide
TTITLE10=Lookin' For My Baby
TTITLE11=Kind Of Lonesome
TTITLE12=Found Joy
TTITLE13=Tell Me You Love Me
TTITLE14=Bright Lights,Big City
TTITLE15=Baby,What's Wrong
TTITLE16=Aw Shucks Hush Your Mouth
TTITLE17=I'm Mr.Luck
TTITLE18=Blue Carnegie
EXTD=
EXTT0=
EXTT1=
EXTT2=
EXTT3=
EXTT4=
EXTT5=
EXTT6=
EXTT7=
EXTT8=
EXTT9=
EXTT10=
EXTT11=
EXTT12=
EXTT13=
EXTT14=
EXTT15=
EXTT16=
EXTT17=
EXTT18=
PLAYORDER=
